<mxfile host="app.diagrams.net" modified="2024-01-08T11:38:56.424Z" agent="Mozilla/5.0 (Windows NT 10.0; Win64; x64) AppleWebKit/537.36 (KHTML, like Gecko) Chrome/120.0.0.0 Safari/537.36" version="22.1.17" etag="kTKJcokD2jfdjeh2rRvK" type="github">
  <diagram name="Page-1" id="b7mhoWh3yBL3H3KasKvm">
    <mxGraphModel>
      <root>
        <mxCell id="0" />
        <mxCell id="1" parent="0" />
      </root>
    </mxGraphModel>
  </diagram>
</mxfile>
